<svg xmlns="http://www.w3.org/2000/svg" viewBox="0 0 124 124"><defs><style>.cls-1{fill:#14203e;}.cls-2{fill:#3e6aa8;}.cls-3{fill:#99b070;}</style></defs><g id="Layer_2" data-name="Layer 2"><g id="Layer_1-2" data-name="Layer 1"><circle class="cls-1" cx="62" cy="62" r="61.92"/><path class="cls-2" d="M62,124a62,62,0,1,1,62-62A62.07,62.07,0,0,1,62,124ZM62,3a59,59,0,1,0,59,59A59.07,59.07,0,0,0,62,3Z"/><path class="cls-2" d="M62,25.66a1.5,1.5,0,0,1-1.5-1.5V13a1.5,1.5,0,0,1,3,0V24.16A1.5,1.5,0,0,1,62,25.66Z"/><path class="cls-2" d="M49.06,28a1.49,1.49,0,0,1-1.41-1L43.84,16.53a1.5,1.5,0,0,1,2.82-1L50.46,26a1.5,1.5,0,0,1-.89,1.93A1.57,1.57,0,0,1,49.06,28Z"/><path class="cls-2" d="M37.68,34.58A1.48,1.48,0,0,1,36.53,34l-7.15-8.52a1.5,1.5,0,1,1,2.3-1.93l7.15,8.52a1.51,1.51,0,0,1-.18,2.12A1.54,1.54,0,0,1,37.68,34.58Z"/><path class="cls-2" d="M29.25,44.67a1.48,1.48,0,0,1-.75-.2l-9.64-5.56a1.5,1.5,0,0,1,1.5-2.6L30,41.87a1.5,1.5,0,0,1-.75,2.8Z"/><path class="cls-2" d="M24.79,57l-.27,0-11-1.93a1.5,1.5,0,0,1,.52-3l11,1.93a1.5,1.5,0,0,1-.26,3Z"/><path class="cls-2" d="M13.85,72.12a1.5,1.5,0,0,1-.25-3l11-1.94a1.5,1.5,0,0,1,.52,3l-11,1.93A1.23,1.23,0,0,1,13.85,72.12Z"/><path class="cls-2" d="M19.71,88.1A1.5,1.5,0,0,1,19,85.3l9.64-5.56a1.48,1.48,0,0,1,2,.55,1.5,1.5,0,0,1-.54,2L20.46,87.9A1.48,1.48,0,0,1,19.71,88.1Z"/><path class="cls-2" d="M30.67,101.12a1.56,1.56,0,0,1-1-.35,1.51,1.51,0,0,1-.18-2.12l7.15-8.52A1.5,1.5,0,1,1,39,92.06l-7.15,8.52A1.48,1.48,0,0,1,30.67,101.12Z"/><path class="cls-2" d="M45.42,109.6a1.5,1.5,0,0,1-1.41-2l3.81-10.45a1.5,1.5,0,1,1,2.82,1l-3.81,10.46A1.5,1.5,0,0,1,45.42,109.6Z"/><path class="cls-2" d="M62.18,112.52a1.5,1.5,0,0,1-1.5-1.5V99.89a1.5,1.5,0,0,1,3,0V111A1.5,1.5,0,0,1,62.18,112.52Z"/><path class="cls-2" d="M78.93,109.54a1.49,1.49,0,0,1-1.4-1L73.72,98.09a1.5,1.5,0,0,1,2.82-1l3.8,10.46a1.5,1.5,0,0,1-.89,1.93A1.58,1.58,0,0,1,78.93,109.54Z"/><path class="cls-2" d="M93.66,101a1.47,1.47,0,0,1-1.15-.54l-7.16-8.52A1.5,1.5,0,1,1,87.65,90l7.15,8.53a1.49,1.49,0,0,1-.18,2.11A1.46,1.46,0,0,1,93.66,101Z"/><path class="cls-2" d="M104.57,87.94a1.43,1.43,0,0,1-.75-.2l-9.64-5.56a1.5,1.5,0,0,1,1.5-2.6l9.64,5.56a1.5,1.5,0,0,1-.75,2.8Z"/><path class="cls-2" d="M110.36,71.94a1.14,1.14,0,0,1-.26,0L99.14,70a1.5,1.5,0,0,1,.52-3l11,1.94a1.5,1.5,0,0,1-.26,3Z"/><path class="cls-2" d="M99.36,56.86a1.5,1.5,0,0,1-.26-3l11-1.93a1.5,1.5,0,0,1,.52,2.95l-11,1.94Z"/><path class="cls-2" d="M94.84,44.51a1.49,1.49,0,0,1-.75-2.79l9.64-5.57a1.5,1.5,0,0,1,1.5,2.6l-9.64,5.56A1.48,1.48,0,0,1,94.84,44.51Z"/><path class="cls-2" d="M86.36,34.46a1.46,1.46,0,0,1-1-.35A1.49,1.49,0,0,1,85.21,32l7.16-8.53a1.5,1.5,0,1,1,2.29,1.93l-7.15,8.52A1.48,1.48,0,0,1,86.36,34.46Z"/><path class="cls-2" d="M75,27.91a1.36,1.36,0,0,1-.52-.09,1.49,1.49,0,0,1-.89-1.92l3.8-10.46a1.5,1.5,0,0,1,2.82,1L76.36,26.93A1.5,1.5,0,0,1,75,27.91Z"/><path class="cls-2" d="M62,112.48A50.48,50.48,0,1,1,112.47,62,50.53,50.53,0,0,1,62,112.48Zm0-97.95A47.48,47.48,0,1,0,109.47,62,47.52,47.52,0,0,0,62,14.53Z"/><path class="cls-2" d="M62,101.35A39.35,39.35,0,1,1,101.34,62,39.39,39.39,0,0,1,62,101.35Zm0-75.69A36.35,36.35,0,1,0,98.34,62,36.39,36.39,0,0,0,62,25.66Z"/><path class="cls-2" d="M70.07,58.76H53.93a3.22,3.22,0,0,1-3.22-3.22V54.46a3.22,3.22,0,0,1,3.22-3.21H75.29v-6.5h-10V35.6h-6.5v9.15H53.93a9.72,9.72,0,0,0-9.72,9.71v1.08a9.73,9.73,0,0,0,9.72,9.72H70.08a3.21,3.21,0,0,1,3.21,3.21v1.07a3.22,3.22,0,0,1-3.21,3.22H48.7v6.5h10V88.4h6.5V79.26h4.82a9.73,9.73,0,0,0,9.72-9.72V68.47A9.72,9.72,0,0,0,70.07,58.76Z"/><path class="cls-3" d="M70.07,56.26H53.93a.72.72,0,0,1-.72-.72V54.46a.71.71,0,0,1,.72-.71H77.79V42.25h-10V33.1H56.25v9.15H53.93A12.23,12.23,0,0,0,41.71,54.46v1.08A12.23,12.23,0,0,0,53.93,67.76H70.07a.71.71,0,0,1,.72.71v1.07a.72.72,0,0,1-.72.72H46.2v11.5h10V90.9h11.5V81.76h2.32A12.23,12.23,0,0,0,82.29,69.54V68.47A12.23,12.23,0,0,0,70.07,56.26Zm9.72,13.28a9.73,9.73,0,0,1-9.72,9.72H65.25V88.4h-6.5V79.26h-10v-6.5H70.08a3.22,3.22,0,0,0,3.21-3.22V68.47a3.21,3.21,0,0,0-3.21-3.21H53.93a9.73,9.73,0,0,1-9.72-9.72V54.46a9.72,9.72,0,0,1,9.72-9.71h4.82V35.6h6.5v9.15h10v6.5H53.93a3.22,3.22,0,0,0-3.22,3.21v1.08a3.22,3.22,0,0,0,3.22,3.22H70.07a9.72,9.72,0,0,1,9.72,9.71Z"/></g></g></svg>