<svg xmlns="http://www.w3.org/2000/svg" viewBox="0 0 139.09 139.09"><defs><style>.cls-1{fill:#fff;}</style></defs><g id="Layer_2" data-name="Layer 2"><g id="Layer_1-2" data-name="Layer 1"><path class="cls-1" d="M24.73,67.81c2.25,1.52,12.09,6.45,44.66,6.45,32.28,0,42.31-4.94,44.66-6.48V53.29c-5.86,2.13-19.07,5.43-44.66,5.43s-38.8-3.3-44.66-5.43Z"/><path class="cls-1" d="M16.1,100.31a6.45,6.45,0,0,1,1-3.39,6.36,6.36,0,0,1-1-3.37V75.68a6.46,6.46,0,0,1,1-3.38,6.39,6.39,0,0,1-1-3.38V44.71c0-4.78,5.3-8.41,15.77-10.79,9.24-2.1,22.21-3.22,37.52-3.22,16,0,53.29,1.37,53.29,14V68.92a6.31,6.31,0,0,1-1,3.38,6.51,6.51,0,0,1,1,3.38V93.55a6.31,6.31,0,0,1-1,3.38,6.49,6.49,0,0,1,1,3.38v14.08A69.54,69.54,0,1,0,16.1,114Z"/><path class="cls-1" d="M24.73,92.44C27,94,36.78,98.89,69.39,98.89S111.8,94,114.05,92.44V77.54c-5.36,1.95-18.5,5.39-44.66,5.39s-39.31-3.44-44.66-5.39Z"/><path class="cls-1" d="M24.73,122.71a69.51,69.51,0,0,0,89.32.27V102.15c-5.12,1.84-18.45,5.41-44.66,5.41S29.85,104,24.73,102.15Z"/><path class="cls-1" d="M112.23,44.57c-4-2-15-5.23-42.84-5.23-26.94,0-38.25,3.3-42.64,5.31,4.54,2.05,16.08,5.44,42.64,5.44C96.39,50.09,107.84,46.6,112.23,44.57Z"/></g></g></svg>