<svg xmlns="http://www.w3.org/2000/svg" viewBox="0 0 131.17 131.17"><defs><style>.cls-1{fill:#14203e;}.cls-2{fill:#3e6aa8;}.cls-3{fill:#99b070;}</style></defs><g id="Layer_2" data-name="Layer 2"><g id="Layer_1-2" data-name="Layer 1"><circle class="cls-1" cx="65.58" cy="65.58" r="65.58"/><path class="cls-2" d="M65.58,103.58A37.89,37.89,0,0,1,40,93.71L27.94,105.8c25.44,23.84,67.5,17.53,85.06-12.39a54.43,54.43,0,0,0,7.43-25.95H103.54A38,38,0,0,1,65.58,103.58Z"/><path class="cls-3" d="M120.39,63.79A55.25,55.25,0,0,0,105.56,28L93.43,39.74a37.83,37.83,0,0,1,10.11,24Z"/><path class="cls-2" d="M52.72,29.82,44,15.15A53.73,53.73,0,0,0,27.15,26.3C6,47,5.19,81.85,25.34,103.21l12.1-12.09a38,38,0,0,1,15.28-61.3Z"/><path class="cls-2" d="M90.81,37.18,103,25.35a55.45,55.45,0,0,0-55.5-11.53l8.84,14.9a38,38,0,0,1,34.48,8.46Z"/><path class="cls-3" d="M50.13,78,56.69,75q3.51,5.63,9.58,5.63a5.89,5.89,0,0,0,4-1.42,4.75,4.75,0,0,0,1.67-3.83,4,4,0,0,0-1.09-2.87,8,8,0,0,0-2.52-1.84Q66.87,70,63.81,68.7C61.76,67.85,60,67,58.44,66.21q-6.78-3.6-6.78-10.72a11,11,0,0,1,4.24-8.78,13.15,13.15,0,0,1,6-2.87V38.91H70.1v5a11.79,11.79,0,0,1,6.32,3,14.78,14.78,0,0,1,4.18,5.42l-6.73,3.28q-3-4.76-7.88-4.76a5.56,5.56,0,0,0-3.83,1.32,4.25,4.25,0,0,0-1.47,3.33,4,4,0,0,0,.41,1.86,4.76,4.76,0,0,0,1,1.37,7.38,7.38,0,0,0,1.81,1.15c.82.4,1.6.75,2.35,1l3.12,1.23c1.33.53,2.54,1,3.64,1.51q8,3.6,8,10.88a12.72,12.72,0,0,1-3,8.51,14,14,0,0,1-8,4.57v4.6H61.89V87.55A13.11,13.11,0,0,1,55,84.32,16.21,16.21,0,0,1,50.13,78Z"/></g></g></svg>