<svg xmlns="http://www.w3.org/2000/svg" viewBox="0 0 126.18 126.18"><defs><style>.cls-1{fill:#275068;}.cls-2{fill:#fff;}</style></defs><g id="Layer_2" data-name="Layer 2"><g id="Layer_1-2" data-name="Layer 1"><circle class="cls-1" cx="63.09" cy="63.09" r="63.09"/><path class="cls-2" d="M92.79,70.19a7,7,0,0,0-5.5-.5l-17.5,5.5a5,5,0,0,0-1.9-1.3l-13.2-5.3a18.46,18.46,0,0,0-11.6-.7L34,70.29v-1.4a2.05,2.05,0,0,0-2.1-2.1H19.69a2.11,2.11,0,0,0-2.1,2.1v26.9a2.05,2.05,0,0,0,2.1,2.1h12.1a2.11,2.11,0,0,0,2.1-2.1v-1.7l27.8,4.8a12.29,12.29,0,0,0,2.7.2,15.56,15.56,0,0,0,9-2.9l20-14.2a6.89,6.89,0,0,0,2.7-7.5A7.46,7.46,0,0,0,92.79,70.19Zm-63.1,23.5h-7.9V71h7.9ZM91,78.59,71,92.79a11.18,11.18,0,0,1-8.5,1.9L34,89.79V74.69L44.19,72a13.62,13.62,0,0,1,8.9.6l13.2,5.3c.4.1.6.4.8.8a2,2,0,0,1,0,1.1,1.49,1.49,0,0,1-1.5.9L50,78.09a2.12,2.12,0,1,0-.6,4.2l15.5,2.5c.3,0,.6.1.9.1a5.61,5.61,0,0,0,5.2-3.5,4.31,4.31,0,0,0,.4-2.2l17.1-5.4a2.56,2.56,0,0,1,2.1.2,2.74,2.74,0,0,1,1.3,1.7A2.51,2.51,0,0,1,91,78.59Z"/><path class="cls-2" d="M69.89,40.09h3a2.43,2.43,0,0,1,2.4,2.4h3.8a6.23,6.23,0,0,0-5.8-6.2v-3.1h-3.8v3.1a6.21,6.21,0,0,0,.4,12.4h3a2.4,2.4,0,0,1,0,4.8h-3a2.43,2.43,0,0,1-2.4-2.4h-3.8a6.23,6.23,0,0,0,5.8,6.2v3.2h3.8v-3.2a6.21,6.21,0,0,0-.4-12.4h-3a2.43,2.43,0,0,1-2.4-2.4A2.37,2.37,0,0,1,69.89,40.09Z"/><path class="cls-2" d="M71.39,68.49a21.81,21.81,0,0,0,20.9-15.8h-4.5a17.47,17.47,0,1,1-16.4-23.4,17.33,17.33,0,0,1,16.4,11.6h4.5a21.71,21.71,0,1,0-20.9,27.6Z"/><path class="cls-2" d="M112,45.29l-7.3-7.3a2.12,2.12,0,0,0-3,3l3.7,3.7H86.89a2.11,2.11,0,0,0-2.1,2.1,2.05,2.05,0,0,0,2.1,2.1h18.5l-3.7,3.7a2.18,2.18,0,0,0,0,3,2.17,2.17,0,0,0,3,0l7.3-7.3A2.17,2.17,0,0,0,112,45.29Z"/></g></g></svg>